<svg version="1.2" xmlns="http://www.w3.org/2000/svg" viewBox="0 0 700 516" width="700" height="516">
	<title>game-svg</title>
	<style>
		.s0 { fill: #FFFFFF } 
	</style>
	<g id="Layer">
		<path id="Layer" fill-rule="evenodd" class="s0" d="m453.8 100.8c83.5 0 151.2 67.7 151.2 151.2 0 83.5-67.7 151.3-151.2 151.3h-141l-94.3 55.9v-58.6c-70.3-13-123.5-74.5-123.5-148.6 0-83.5 67.7-151.2 151.2-151.2h207.6zm-31 99.3c0 14.7 11.9 26.6 26.6 26.6 14.6 0 26.5-11.9 26.5-26.6 0-14.6-11.9-26.5-26.5-26.5-14.7 0-26.6 11.9-26.6 26.5zm-95.5 26.7h-52.4v-52.4h-50.1v52.4h-52.5v50.1h52.5v52.4h50.1v-52.4h52.4zm96.9 25.1c0-14.7-11.9-26.6-26.6-26.6-14.7 0-26.5 11.9-26.5 26.6 0 14.6 11.8 26.5 26.5 26.5 14.7 0 26.6-11.9 26.6-26.5zm51.7 51.7c0-14.7-11.9-26.6-26.5-26.6-14.7 0-26.6 11.9-26.6 26.6 0 14.7 11.9 26.6 26.6 26.6 14.6 0 26.5-11.9 26.5-26.6zm51.7-51.7c0-14.7-11.8-26.6-26.5-26.6-14.7 0-26.6 11.9-26.6 26.6 0 14.6 11.9 26.5 26.6 26.5 14.7 0 26.5-11.9 26.5-26.5z"/>
	</g>
</svg>