<svg version="1.2" xmlns="http://www.w3.org/2000/svg" viewBox="0 0 700 570" width="700" height="570">
	<title>innovation-svg</title>
	<style>
		.s0 { fill: #FFFFFF } 
	</style>
	<g id="Layer">
		<path id="Layer" class="s0" d="m415.7 191.9c-4.4 1.5-9.2-0.8-10.8-5.1-2.4-6.9-7.4-12.5-13.9-15.7-4.1-2.1-5.8-7.2-3.7-11.3 2.1-4.2 7.1-5.8 11.3-3.8 10.3 5.2 18.3 14.2 22.2 25.2 1.5 4.4-0.8 9.1-5.1 10.7z"/>
		<path id="Layer" fill-rule="evenodd" class="s0" d="m495.6 349.3l31.1 102.1-212.2 64.6-22.7-74.4h-93v-95.2h-50.4l50.4-100.8v-28h0.1c1.5-96.2 79.8-173.6 176.3-173.6 97.4 0 176.4 79 176.4 176.4 0 50.9-21.6 96.7-56 128.9zm-90.5-72.9h-59.8v38.9h17.5l5.5 9.2h13.8l5.5-9.2h17.5c0 0 0-38.9 0-38.9zm34.5-83.9c0-30.3-28.2-58.9-64.4-58.9-36.2 0-64.4 28.6-64.4 58.9 0 36.4 27.8 46.4 33.4 67.1h62c5.6-20.7 33.4-30.7 33.4-67.1z"/>
	</g>
</svg>