<svg id="logo" xmlns="http://www.w3.org/2000/svg" width="103.752" height="25" viewBox="0 0 103.752 25">
  <path id="Trazado_1" data-name="Trazado 1" d="M250.106,615.361l-2.877-4.328h-1.31v-2.344h4.318a9.146,9.146,0,0,0,1.354-5.248q0-4.264-2.281-6.187t-7.632-1.923h-8.7v4.552h2.145v2.224h-3.888v2.275h1.743v10.979h1.552v2.224h-1.552v2.18h5.12v-7.8h3.545l2.213,3.391H247.3v2.224h-3.9v2.18h5.06v-2.18h4.889v-2.224Zm-8.265-8.11H238.1v-2.92h-1.967v-2.224H238.1l2.93,0v-2.087h.91a5.986,5.986,0,0,1,3.448.734,3.189,3.189,0,0,1,.985,2.709,3.833,3.833,0,0,1-.953,2.884Q244.466,607.251,241.841,607.251Z" transform="translate(-202.787 -594.807)" fill="#0a0a0a"/>
  <path id="Trazado_2" data-name="Trazado 2" d="M398.395,599.882h-1.341a6.614,6.614,0,0,0-1.639-2.366q-2.413-2.183-7.7-2.185h-8.108v6.82h-1.437v2.224h1.437v10.984h1.513v2.224h-4.9v2.224h6.323v-2.224h3.9v-2.224H384.73v-2.412h3.053q5.089,0,7.567-2.1t2.478-6.624a14.041,14.041,0,0,0-.151-2.121h.719Zm-4.939,2.224h-1.179a5.906,5.906,0,0,1-.621,5.022q-.919,1.1-3.481,1.1H384.73v-3.944h-1.619v-2.224h1v-2.179h9.349Z" transform="translate(-294.643 -594.807)" fill="#0a0a0a"/>
  <path id="Trazado_3" data-name="Trazado 3" d="M320.331,598.885a12.682,12.682,0,0,0-1.233-1.49,11.967,11.967,0,0,0-17.136,0,12.12,12.12,0,0,0-2.468,3.711h-2.96v2.221H298.8a14.536,14.536,0,0,0-.313,3.056,12.567,12.567,0,0,0,2.589,7.959h2.88v2.221h-4.234v2.221h7.339v-2.221h12.9v-2.176a11.936,11.936,0,0,0,2.2-4.487h-2.2v-2.221h2.567c.035-.423.055-.855.055-1.3a13.4,13.4,0,0,0-1.012-5.277h2.285v-2.221Zm-2.662,2.221H315.6a8.3,8.3,0,0,1,1.757,5.294,9.867,9.867,0,0,1-.088,1.278h-2.226V609.9h1.626a7.9,7.9,0,0,1-1.282,2.051,6.269,6.269,0,0,1-9.683,0,8.2,8.2,0,0,1-1.97-5.55,8.973,8.973,0,0,1,.513-3.074H302.3v-2.221h4.982v-1.658a5.984,5.984,0,0,1,3.263-.919,6.2,6.2,0,0,1,2.107.357h5.016Z" transform="translate(-243.865 -593.783)" fill="#0a0a0a"/>
  <path id="Trazado_4" data-name="Trazado 4" d="M177.836,599.883h-2.753a10.03,10.03,0,0,0-1.16-1.352q-3.283-3.2-9.422-3.2h-.487v2.327h-7.621v17.7h1.355v2.224H153.6v2.181h10.415v-2.181h8.655a9.142,9.142,0,0,0,1.337-1.14,11.13,11.13,0,0,0,2.84-5.481H174.2v-2.327h2.966c.025-.395.04-.8.04-1.211a14.357,14.357,0,0,0-.92-5.32h1.55ZM172,608.689h-2.382v2.224h1.9a5.9,5.9,0,0,1-1.346,2.14,7.306,7.306,0,0,1-5.4,1.889h-3.249v-10.56h-2.642v-2.327h2.642v-1.97h2.856q3.905,0,5.793,1.94a7.616,7.616,0,0,1,1.888,5.54C172.052,607.957,172.029,608.328,172,608.689Z" transform="translate(-153.6 -594.807)" fill="#0a0a0a"/>
</svg>
