<svg xmlns="http://www.w3.org/2000/svg" width="40" height="40.001" viewBox="0 0 40 40.001">
  <g id="logo_transparencia" data-name="logo transparencia" transform="translate(0)">
    <path id="Trazado_114" data-name="Trazado 114" d="M264.09,301.361h6.037l-6.037-6.037Z" transform="translate(-251.544 -273.907)" fill="#fff"/>
    <path id="Trazado_115" data-name="Trazado 115" d="M277.059,227.249,264.09,214.28v3.466l9.5,9.5Z" transform="translate(-251.465 -199.874)" fill="#fff"/>
    <path id="Trazado_116" data-name="Trazado 116" d="M297.246,203.594l-9.5-9.5h-3.466l12.969,12.969Z" transform="translate(-269.872 -181.465)" fill="#fff"/>
    <path id="Trazado_117" data-name="Trazado 117" d="M371.361,194.09h-6.037l6.037,6.037Z" transform="translate(-343.907 -181.544)" fill="#fff"/>
    <path id="Trazado_118" data-name="Trazado 118" d="M281.236,194.09v15.921a1.229,1.229,0,0,1-1.225,1.225H264.09v9.8h26.943V194.091Z" transform="translate(-251.033 -181.033)" fill="#fff"/>
    <path id="Trazado_119" data-name="Trazado 119" d="M147.853,50.91H120.91V77.853h9.8V61.932a1.229,1.229,0,0,1,1.225-1.225h15.921Z" transform="translate(-120.91 -50.91)" fill="#fff"/>
  </g>
</svg>
