<svg version="1.2" xmlns="http://www.w3.org/2000/svg" viewBox="0 0 700 700" width="700" height="700">
	<title>noun-search-1035678-svg</title>
	<style>
		.s0 { fill: #CB0355 } 
	</style>
	<g id="Layer">
		<path id="Layer" fill-rule="evenodd" class="s0" d="m70 588.7l156.7-156.7c-29.3-38-46.7-85.5-46.7-137 0-124.1 100.9-225 225-225 124.1 0 225 100.9 225 225 0 124.1-100.9 225-225 225-51.5 0-99-17.4-137-46.7l-156.7 156.7zm168.4-293.7c0 91.9 74.8 166.6 166.6 166.6 91.9 0 166.6-74.7 166.6-166.6 0-91.8-74.7-166.6-166.6-166.6-91.8 0-166.6 74.8-166.6 166.6z"/>
	</g>
</svg>