<?xml version="1.0" encoding="UTF-8"?>
<svg width="700pt" height="700pt" version="1.1" viewBox="0 0 700 700" xmlns="http://www.w3.org/2000/svg">
	<style>
		.s0 { fill: #FFFFFF } 
	</style>
 <g>
  <path d="m264.09 365.91h70.586l-70.586-70.586z"/>
  <path d="m415.72 365.91-151.63-151.63v40.523l111.11 111.11z"/>
  <path d="m435.91 305.2-111.11-111.11h-40.523l151.63 151.63z"/>
  <path d="m435.91 194.09h-70.586l70.586 70.586z"/>
  <path d="m464.55 194.09v186.14c-0.011719 3.793-1.5234 7.4297-4.207 10.113s-6.3203 4.1953-10.113 4.207h-186.14v114.55l315-0.003906v-315z"/>
  <path d="m435.91 50.91h-315v315h114.55l-0.003906-186.14c0.011719-3.793 1.5234-7.4297 4.207-10.113s6.3203-4.1953 10.113-4.207h186.14z"/>
 </g>
</svg>
